# xmcd CD database file
#
# Track frame offsets:
#	150
#	6062
#	87235
#	142975
#	200120
#
# Disc length: 2771 seconds
#
# Revision: 0
# Processed by: cddbd v1.5PL3 Copyright (c) Steve Scherf et al.
# Submitted via: CDex 1.50beta9
#
DISCID=3b0ad105
DTITLE=のなか悟空＆人間国宝 - DUMP
DYEAR=1900
DGENRE=Jazz
TTITLE0=DUMP
TTITLE1=BLUE NILE
TTITLE2=大鹿
TTITLE3=DIRTY and SWEET
TTITLE4=DUMP+R
EXTD=
EXTT0=
EXTT1=
EXTT2=
EXTT3=
EXTT4=
PLAYORDER=
